<?xml version="1.0" encoding="utf-8"?>
<!-- Generator: Adobe Illustrator 15.1.0, SVG Export Plug-In . SVG Version: 6.00 Build 0)  -->
<!DOCTYPE svg PUBLIC "-//W3C//DTD SVG 1.1//EN" "http://www.w3.org/Graphics/SVG/1.1/DTD/svg11.dtd">
<svg version="1.1" id="Icon" xmlns="http://www.w3.org/2000/svg" xmlns:xlink="http://www.w3.org/1999/xlink" x="0px" y="0px"
	 width="32px" height="32px" viewBox="0 0 32 32" enable-background="new 0 0 32 32" xml:space="preserve">
<g>
	
		<linearGradient id="SVGID_1_" gradientUnits="userSpaceOnUse" x1="-142.0435" y1="-392.8413" x2="-142.0435" y2="-392.7974" gradientTransform="matrix(723.3854 0 0 723.3854 102768.3438 284175.9688)">
		<stop  offset="0" style="stop-color:#2F93EF"/>
		<stop  offset="1" style="stop-color:#2F77EF"/>
	</linearGradient>
	<path fill="url(#SVGID_1_)" d="M32,28.001C32,30.209,30.208,32,28,32H4.001C1.791,32,0,30.209,0,28.001v-24
		C0,1.793,1.791,0,4.001,0H28c2.209,0,4,1.792,4,4.001V28.001z"/>
	<path fill="#2F6FEF" d="M20.158,17.414c-0.423-0.183-0.843-0.283-1.264-0.302c-0.291-0.01-0.784-0.036-1.48-0.081
		c-0.697-0.046-1.244-0.073-1.646-0.081c-0.373-0.01-0.734-0.023-1.085-0.042s-0.658-0.063-0.922-0.137
		c-0.272-0.063-0.506-0.186-0.696-0.362c-0.191-0.177-0.286-0.435-0.286-0.771c0-0.327,0.112-0.587,0.341-0.776
		c0.228-0.19,0.445-0.322,0.655-0.396h1.651c1.273,0,2.393-0.409,3.353-1.229c0.961-0.818,1.439-1.82,1.439-3.004
		c0-0.454-0.082-0.919-0.245-1.395c-0.164-0.473-0.415-0.906-0.752-1.297V7.46h3.168V6.149h-4.696
		c-0.419-0.127-0.831-0.232-1.236-0.314c-0.404-0.082-0.812-0.123-1.222-0.123c-1.484,0-2.702,0.409-3.652,1.229
		c-0.951,0.819-1.428,1.865-1.428,3.141c0,0.848,0.24,1.591,0.724,2.232c0.482,0.642,1.16,1.168,2.035,1.576v0.205
		c-0.692,0.291-1.208,0.641-1.55,1.045c-0.342,0.405-0.514,0.85-0.514,1.331c0,0.384,0.073,0.704,0.22,0.963
		c0.146,0.26,0.337,0.485,0.573,0.678c0.209,0.163,0.459,0.308,0.752,0.43c0.291,0.122,0.572,0.226,0.846,0.308v0.19
		c-1.129,0.047-2.059,0.337-2.786,0.873c-0.728,0.538-1.092,1.27-1.092,2.199c0,1.146,0.506,2.018,1.516,2.614
		c1.01,0.598,2.535,0.896,4.574,0.896c1.246,0,2.293-0.119,3.141-0.355c0.849-0.237,1.575-0.569,2.186-0.996
		c0.572-0.421,1.002-0.913,1.284-1.482c0.281-0.569,0.424-1.176,0.424-1.823c0-0.646-0.104-1.188-0.314-1.625
		c-0.209-0.437-0.495-0.828-0.859-1.175C20.967,17.846,20.583,17.596,20.158,17.414z M16.99,12.573
		c-0.424,0.633-1.025,0.948-1.81,0.948c-0.7,0-1.271-0.317-1.714-0.955c-0.44-0.638-0.662-1.461-0.662-2.473
		c0-0.445,0.039-0.881,0.116-1.304c0.077-0.424,0.207-0.786,0.39-1.086c0.191-0.328,0.439-0.58,0.744-0.758
		c0.306-0.177,0.671-0.268,1.1-0.268c0.781,0,1.39,0.317,1.822,0.949c0.433,0.633,0.648,1.481,0.648,2.547
		C17.626,11.141,17.415,11.94,16.99,12.573z M19.094,23.811c-0.769,0.517-1.822,0.771-3.161,0.771c-0.772,0-1.429-0.074-1.967-0.225
		c-0.537-0.15-0.965-0.345-1.283-0.581c-0.337-0.245-0.572-0.515-0.71-0.806c-0.137-0.292-0.205-0.597-0.205-0.915
		c0-0.711,0.208-1.29,0.622-1.74c0.414-0.451,1.113-0.772,2.098-0.964c1.046,0,1.967,0.023,2.757,0.068
		c0.793,0.046,1.316,0.087,1.572,0.123c0.481,0.117,0.841,0.341,1.078,0.67c0.236,0.328,0.354,0.745,0.354,1.256
		C20.247,22.516,19.863,23.297,19.094,23.811z"/>
	<path fill="#FFFFFF" d="M20.158,18.083c-0.423-0.182-0.843-0.283-1.264-0.301c-0.291-0.01-0.784-0.036-1.48-0.082
		c-0.697-0.046-1.244-0.073-1.646-0.081c-0.373-0.009-0.734-0.023-1.085-0.042c-0.351-0.018-0.658-0.062-0.922-0.136
		c-0.272-0.063-0.506-0.186-0.696-0.363c-0.191-0.177-0.286-0.434-0.286-0.771c0-0.326,0.112-0.588,0.341-0.777
		c0.228-0.19,0.445-0.322,0.655-0.396h1.651c1.273,0,2.393-0.41,3.353-1.229c0.961-0.819,1.439-1.82,1.439-3.004
		c0-0.455-0.082-0.92-0.245-1.395c-0.164-0.474-0.415-0.906-0.752-1.297V8.127h3.168V6.816h-4.696
		c-0.419-0.127-0.831-0.232-1.236-0.314c-0.404-0.081-0.812-0.123-1.222-0.123c-1.484,0-2.702,0.41-3.652,1.229
		c-0.951,0.818-1.428,1.865-1.428,3.141c0,0.847,0.24,1.591,0.724,2.231c0.482,0.643,1.16,1.168,2.035,1.577v0.205
		c-0.692,0.291-1.208,0.641-1.55,1.045s-0.514,0.85-0.514,1.33c0,0.384,0.073,0.704,0.22,0.963c0.146,0.261,0.337,0.485,0.573,0.678
		c0.209,0.164,0.459,0.308,0.752,0.43c0.291,0.123,0.572,0.226,0.846,0.308v0.19c-1.129,0.047-2.059,0.338-2.786,0.874
		c-0.728,0.537-1.092,1.27-1.092,2.199c0,1.146,0.506,2.018,1.516,2.613c1.01,0.599,2.535,0.896,4.574,0.896
		c1.246,0,2.293-0.119,3.141-0.355c0.849-0.236,1.575-0.569,2.186-0.996c0.572-0.42,1.002-0.913,1.284-1.482
		c0.281-0.568,0.424-1.175,0.424-1.823c0-0.646-0.104-1.187-0.314-1.625c-0.209-0.437-0.495-0.828-0.859-1.175
		C20.967,18.516,20.583,18.266,20.158,18.083z M16.99,13.242c-0.424,0.634-1.025,0.949-1.81,0.949c-0.7,0-1.271-0.318-1.714-0.955
		c-0.44-0.639-0.662-1.462-0.662-2.474c0-0.444,0.039-0.881,0.116-1.304c0.077-0.424,0.207-0.785,0.39-1.086
		c0.191-0.327,0.439-0.58,0.744-0.757c0.306-0.178,0.671-0.268,1.1-0.268c0.781,0,1.39,0.316,1.822,0.949
		c0.433,0.632,0.648,1.481,0.648,2.546C17.626,11.811,17.415,12.609,16.99,13.242z M19.094,24.479
		c-0.769,0.517-1.822,0.772-3.161,0.772c-0.772,0-1.429-0.074-1.967-0.226c-0.537-0.149-0.965-0.345-1.283-0.581
		c-0.337-0.244-0.572-0.515-0.71-0.806c-0.137-0.291-0.205-0.597-0.205-0.915c0-0.71,0.208-1.29,0.622-1.74
		c0.414-0.451,1.113-0.772,2.098-0.964c1.046,0,1.967,0.023,2.757,0.068c0.793,0.046,1.316,0.088,1.572,0.123
		c0.481,0.118,0.841,0.342,1.078,0.67c0.236,0.328,0.354,0.745,0.354,1.256C20.247,23.185,19.863,23.966,19.094,24.479z"/>
</g>
</svg>
