<?xml version="1.0" encoding="utf-8"?>
<!-- Generator: Adobe Illustrator 15.1.0, SVG Export Plug-In . SVG Version: 6.00 Build 0)  -->
<!DOCTYPE svg PUBLIC "-//W3C//DTD SVG 1.1//EN" "http://www.w3.org/Graphics/SVG/1.1/DTD/svg11.dtd">
<svg version="1.1" id="Icon" xmlns="http://www.w3.org/2000/svg" xmlns:xlink="http://www.w3.org/1999/xlink" x="0px" y="0px"
	 width="32px" height="32px" viewBox="0 0 32 32" enable-background="new 0 0 32 32" xml:space="preserve">
<g>
	
		<linearGradient id="SVGID_1_" gradientUnits="userSpaceOnUse" x1="-478.4878" y1="-468.4009" x2="-478.4878" y2="-466.8652" gradientTransform="matrix(20.8333 0 0 20.8333 9984.4785 9758.3506)">
		<stop  offset="0" style="stop-color:#E16D35"/>
		<stop  offset="1" style="stop-color:#C93D1D"/>
	</linearGradient>
	<path fill="url(#SVGID_1_)" d="M32,28c0,2.209-1.791,4-4,4H4c-2.208,0-4-1.791-4-4V4c0-2.208,1.792-4,4-4h24c2.209,0,4,1.792,4,4
		V28z"/>
	<path fill="#B7321C" d="M17.798,17.216c-0.37-0.159-0.738-0.247-1.104-0.263c-0.256-0.009-0.688-0.032-1.297-0.072
		c-0.609-0.039-1.089-0.062-1.439-0.071c-0.327-0.008-0.645-0.02-0.95-0.035c-0.307-0.017-0.576-0.057-0.807-0.119
		c-0.239-0.058-0.442-0.162-0.61-0.318c-0.167-0.154-0.25-0.38-0.25-0.675c0-0.287,0.1-0.514,0.298-0.681
		c0.199-0.167,0.391-0.282,0.573-0.348h1.446c1.114,0,2.093-0.357,2.934-1.075c0.841-0.717,1.261-1.593,1.261-2.629
		c0-0.397-0.07-0.805-0.215-1.219c-0.144-0.414-0.361-0.792-0.656-1.135V8.505h2.771V7.358h-4.111
		c-0.366-0.111-0.727-0.203-1.082-0.274c-0.354-0.072-0.711-0.108-1.068-0.108c-1.298,0-2.365,0.359-3.197,1.076
		C9.46,8.769,9.044,9.685,9.044,10.801c0,0.742,0.21,1.394,0.633,1.954c0.422,0.562,1.016,1.022,1.781,1.381v0.18
		c-0.604,0.255-1.058,0.56-1.357,0.913c-0.299,0.354-0.447,0.743-0.447,1.165c0,0.335,0.063,0.616,0.19,0.844
		c0.127,0.227,0.294,0.424,0.502,0.592c0.184,0.144,0.402,0.269,0.657,0.376c0.254,0.107,0.502,0.197,0.741,0.269v0.167
		c-0.988,0.041-1.801,0.295-2.438,0.766s-0.956,1.11-0.956,1.925c0,1.004,0.442,1.767,1.327,2.289
		c0.884,0.521,2.22,0.783,4.003,0.783c1.092,0,2.009-0.104,2.749-0.312c0.742-0.207,1.378-0.498,1.913-0.873
		c0.502-0.366,0.876-0.798,1.124-1.296c0.246-0.498,0.37-1.029,0.37-1.596c0-0.567-0.092-1.04-0.273-1.423
		c-0.185-0.382-0.436-0.726-0.755-1.027C18.505,17.595,18.169,17.375,17.798,17.216z M15.025,12.979
		c-0.371,0.555-0.899,0.831-1.583,0.831c-0.613,0-1.113-0.278-1.5-0.837c-0.388-0.557-0.579-1.277-0.579-2.163
		c0-0.39,0.033-0.771,0.101-1.142s0.181-0.687,0.341-0.95c0.167-0.287,0.386-0.508,0.651-0.664c0.266-0.155,0.587-0.232,0.962-0.232
		c0.686,0,1.217,0.276,1.595,0.831c0.378,0.554,0.568,1.296,0.568,2.229C15.582,11.726,15.396,12.425,15.025,12.979z M16.866,22.815
		c-0.673,0.449-1.597,0.675-2.768,0.675c-0.677,0-1.25-0.065-1.721-0.196c-0.47-0.131-0.845-0.301-1.123-0.509
		c-0.295-0.215-0.502-0.45-0.622-0.705s-0.179-0.521-0.179-0.801c0-0.621,0.181-1.129,0.544-1.523
		c0.362-0.395,0.974-0.676,1.834-0.843c0.916,0,1.722,0.02,2.414,0.06c0.693,0.041,1.151,0.076,1.375,0.107
		c0.422,0.104,0.737,0.299,0.945,0.586c0.207,0.287,0.311,0.652,0.311,1.1C17.875,21.682,17.539,22.365,16.866,22.815z"/>
	<path fill="#B7321C" d="M22.432,10.872v2.336h0.912v-2.336h2.326V9.975h-2.326V7.633h-0.912v2.342h-2.324v0.897H22.432z"/>
	<path fill="#FFFFFF" d="M17.798,18.133c-0.37-0.159-0.738-0.247-1.104-0.264c-0.256-0.008-0.688-0.032-1.297-0.071
		c-0.609-0.04-1.089-0.062-1.439-0.071c-0.327-0.008-0.645-0.02-0.95-0.035c-0.307-0.017-0.576-0.057-0.807-0.12
		c-0.239-0.057-0.442-0.161-0.61-0.317c-0.167-0.154-0.25-0.38-0.25-0.675c0-0.287,0.1-0.514,0.298-0.681
		c0.199-0.167,0.391-0.283,0.573-0.348h1.446c1.114,0,2.093-0.358,2.934-1.075c0.841-0.718,1.261-1.594,1.261-2.629
		c0-0.397-0.07-0.805-0.215-1.22c-0.144-0.414-0.361-0.792-0.656-1.135V9.421h2.771V8.274h-4.111
		C15.274,8.163,14.914,8.071,14.559,8c-0.354-0.071-0.711-0.108-1.068-0.108c-1.298,0-2.365,0.358-3.197,1.076
		c-0.833,0.717-1.249,1.633-1.249,2.749c0,0.741,0.21,1.394,0.633,1.954c0.422,0.562,1.016,1.022,1.781,1.381v0.179
		c-0.604,0.256-1.058,0.561-1.357,0.914C9.802,16.5,9.653,16.888,9.653,17.31c0,0.335,0.063,0.616,0.19,0.844
		s0.294,0.425,0.502,0.592c0.184,0.144,0.402,0.27,0.657,0.377c0.254,0.105,0.502,0.197,0.741,0.269v0.167
		c-0.988,0.041-1.801,0.295-2.438,0.766c-0.638,0.47-0.956,1.11-0.956,1.925c0,1.004,0.442,1.766,1.327,2.288
		c0.884,0.522,2.22,0.784,4.003,0.784c1.092,0,2.009-0.104,2.749-0.312c0.742-0.208,1.378-0.498,1.913-0.873
		c0.502-0.366,0.876-0.799,1.124-1.297c0.246-0.498,0.37-1.029,0.37-1.595c0-0.566-0.092-1.04-0.273-1.423
		c-0.185-0.383-0.436-0.726-0.755-1.028C18.505,18.512,18.169,18.292,17.798,18.133z M15.025,13.896
		c-0.371,0.554-0.899,0.83-1.583,0.83c-0.613,0-1.113-0.277-1.5-0.836c-0.388-0.558-0.579-1.278-0.579-2.164
		c0-0.39,0.033-0.771,0.101-1.141s0.181-0.688,0.341-0.95c0.167-0.287,0.386-0.508,0.651-0.663c0.266-0.154,0.587-0.232,0.962-0.232
		c0.686,0,1.217,0.276,1.595,0.831c0.378,0.554,0.568,1.297,0.568,2.229C15.582,12.643,15.396,13.342,15.025,13.896z M16.866,23.732
		c-0.673,0.449-1.597,0.675-2.768,0.675c-0.677,0-1.25-0.065-1.721-0.196c-0.47-0.132-0.845-0.301-1.123-0.509
		c-0.295-0.215-0.502-0.45-0.622-0.705s-0.179-0.521-0.179-0.801c0-0.622,0.181-1.129,0.544-1.523
		c0.362-0.395,0.974-0.676,1.834-0.844c0.916,0,1.722,0.021,2.414,0.061c0.693,0.04,1.151,0.076,1.375,0.107
		c0.422,0.103,0.737,0.298,0.945,0.586c0.207,0.287,0.311,0.652,0.311,1.099C17.875,22.598,17.539,23.282,16.866,23.732z"/>
	<path fill="#FFFFFF" d="M22.432,11.789v2.337h0.912v-2.337h2.326v-0.896h-2.326V8.551h-0.912v2.342h-2.324v0.896H22.432
		L22.432,11.789z"/>
</g>
</svg>
