<?xml version="1.0" encoding="utf-8"?>
<!-- Generator: Adobe Illustrator 15.1.0, SVG Export Plug-In . SVG Version: 6.00 Build 0)  -->
<!DOCTYPE svg PUBLIC "-//W3C//DTD SVG 1.1//EN" "http://www.w3.org/Graphics/SVG/1.1/DTD/svg11.dtd">
<svg version="1.1" id="Icon" xmlns="http://www.w3.org/2000/svg" xmlns:xlink="http://www.w3.org/1999/xlink" x="0px" y="0px"
	 width="32px" height="32px" viewBox="0 0 32 32" enable-background="new 0 0 32 32" xml:space="preserve">
<g>
	
		<linearGradient id="SVGID_1_" gradientUnits="userSpaceOnUse" x1="-478.4878" y1="-468.4009" x2="-478.4878" y2="-466.8652" gradientTransform="matrix(20.8333 0 0 20.8333 9984.4785 9758.3506)">
		<stop  offset="0" style="stop-color:#4BD0EF"/>
		<stop  offset="1" style="stop-color:#29AAE1"/>
	</linearGradient>
	<path fill="url(#SVGID_1_)" d="M32,28c0,2.209-1.791,4-4,4H4c-2.208,0-4-1.791-4-4V4c0-2.208,1.792-4,4-4h24c2.209,0,4,1.792,4,4
		V28z"/>
	<path fill="#29AAE1" d="M26.82,8.942c-0.746,0.332-1.549,0.556-2.393,0.655c0.86-0.516,1.521-1.332,1.831-2.305
		c-0.804,0.477-1.694,0.824-2.646,1.011c-0.76-0.81-1.842-1.314-3.04-1.314c-2.299,0-4.164,1.863-4.164,4.165
		c0,0.327,0.037,0.644,0.106,0.949c-3.461-0.174-6.529-1.832-8.583-4.352C7.574,8.367,7.369,9.083,7.369,9.846
		c0,1.445,0.734,2.721,1.853,3.467c-0.683-0.021-1.325-0.21-1.887-0.521c0,0.018,0,0.036,0,0.053c0,2.019,1.437,3.701,3.341,4.083
		c-0.35,0.097-0.717,0.146-1.098,0.146c-0.27,0-0.529-0.025-0.784-0.073c0.53,1.653,2.068,2.858,3.89,2.893
		c-1.426,1.116-3.222,1.783-5.172,1.783c-0.336,0-0.668-0.021-0.994-0.06c1.844,1.182,4.032,1.872,6.385,1.872
		c7.66,0,11.85-6.347,11.85-11.85c0-0.181-0.004-0.359-0.013-0.54C25.556,10.511,26.263,9.777,26.82,8.942z"/>
	<path fill="#FFFFFF" d="M26.82,9.826c-0.746,0.331-1.549,0.555-2.393,0.656c0.86-0.516,1.521-1.332,1.831-2.305
		c-0.804,0.478-1.694,0.824-2.646,1.011c-0.76-0.81-1.842-1.314-3.04-1.314c-2.299,0-4.164,1.864-4.164,4.165
		c0,0.326,0.037,0.644,0.106,0.949c-3.461-0.174-6.529-1.832-8.583-4.352c-0.358,0.615-0.563,1.331-0.563,2.095
		c0,1.444,0.734,2.72,1.853,3.466c-0.683-0.021-1.325-0.209-1.887-0.521c0,0.019,0,0.035,0,0.054c0,2.018,1.437,3.7,3.341,4.083
		c-0.35,0.097-0.717,0.146-1.098,0.146c-0.27,0-0.529-0.025-0.784-0.073c0.53,1.654,2.068,2.857,3.89,2.893
		c-1.426,1.117-3.222,1.782-5.172,1.782c-0.336,0-0.668-0.02-0.994-0.059c1.844,1.182,4.032,1.872,6.385,1.872
		c7.66,0,11.85-6.347,11.85-11.85c0-0.182-0.004-0.36-0.013-0.539C25.556,11.395,26.263,10.661,26.82,9.826z"/>
</g>
</svg>
