<?xml version="1.0" encoding="utf-8"?>
<!-- Generator: Adobe Illustrator 15.1.0, SVG Export Plug-In . SVG Version: 6.00 Build 0)  -->
<!DOCTYPE svg PUBLIC "-//W3C//DTD SVG 1.1//EN" "http://www.w3.org/Graphics/SVG/1.1/DTD/svg11.dtd">
<svg version="1.1" id="Icon" xmlns="http://www.w3.org/2000/svg" xmlns:xlink="http://www.w3.org/1999/xlink" x="0px" y="0px"
	 width="32px" height="32px" viewBox="0 0 32 32" enable-background="new 0 0 32 32" xml:space="preserve">
<g>
	
		<linearGradient id="SVGID_1_" gradientUnits="userSpaceOnUse" x1="-461.1294" y1="286.5986" x2="-461.1294" y2="286.478" gradientTransform="matrix(265.625 0 0 -265.625 122503.4375 76127.8125)">
		<stop  offset="0" style="stop-color:#F93C2D"/>
		<stop  offset="1" style="stop-color:#D32D20"/>
	</linearGradient>
	<path fill="url(#SVGID_1_)" d="M32,27.982c0,2.205-1.791,3.993-4,3.993H4c-2.209,0-4-1.788-4-3.993V4.018
		c0-2.204,1.791-3.993,4-3.993h24c2.209,0,4,1.789,4,3.993V27.982z"/>
	<path fill="#FFFFFF" d="M16.454,24.158c0,0,3.451,0,6.76-0.168c3.31-0.168,3.913-1.082,4.23-3.914
		c0.418-3.75-0.042-8.735-0.042-8.735s-0.042-3.058-3.52-3.183c-3.477-0.126-7.424-0.168-7.424-0.168h-0.72
		c0,0-3.947,0.042-7.424,0.168c-3.478,0.126-3.52,3.183-3.52,3.183s-0.46,4.984-0.042,8.735c0.317,2.832,0.922,3.748,4.23,3.914
		c3.309,0.168,6.76,0.168,6.76,0.168H16.454z"/>
	<polygon fill="#DA281E" points="13.72,12.766 13.72,19.299 19.918,16.075 	"/>
	<polygon fill="#C9221B" points="13.72,12.766 19.153,16.472 19.918,16.075 	"/>
</g>
</svg>
