<svg baseProfile="tiny" xmlns="http://www.w3.org/2000/svg" preserveAspectRatio="xMinYMin meet" viewBox="0 0 200 200" width="200" height="200"><g transform="translate(160)"><linearGradient id="a" gradientUnits="userSpaceOnUse" x1="-395.539" y1="-585.999" x2="-395.539" y2="-586.21" gradientTransform="matrix(150.704 0 0 -150.704 59625.227 -88312.281)"><stop offset="0" stop-color="#4B71B8"/><stop offset="1" stop-color="#293F7E"/></linearGradient><path fill="url(#a)" d="M32 27.97c0 2.203-1.793 3.988-4 3.988H4c-2.21 0-4-1.788-4-3.987V4.03C0 1.828 1.792.04 4 .04h24c2.207 0 4 1.787 4 3.99v23.94z"/><path fill="#fff" d="M26.455 6.277h-4.107c-2.44 0-5.154 1.02-5.154 4.555.014 1.23 0 2.408 0 3.734h-2.822v4.483h2.91v12.907h5.346V18.964h3.53l.32-4.41h-3.942s.01-1.964 0-2.532c0-1.396 1.455-1.315 1.54-1.315.696 0 2.04.002 2.386 0v-4.43h-.007z"/></g><g transform="translate(120 40)"><linearGradient id="a" gradientUnits="userSpaceOnUse" x1="-142.043" y1="-392.841" x2="-142.043" y2="-392.797" gradientTransform="matrix(723.385 0 0 723.385 102768.344 284175.969)"><stop offset="0" stop-color="#2F93EF"/><stop offset="1" stop-color="#2F77EF"/></linearGradient><path fill="url(#a)" d="M32 28c0 2.21-1.792 4-4 4H4c-2.21 0-4-1.79-4-4V4c0-2.207 1.79-4 4-4h24c2.21 0 4 1.792 4 4v24z"/><path fill="#2F6FEF" d="M20.158 17.414c-.423-.183-.843-.283-1.264-.302-.29-.01-.784-.036-1.48-.08-.697-.047-1.244-.074-1.646-.082-.373-.01-.734-.023-1.085-.042s-.658-.063-.922-.137c-.27-.06-.504-.184-.694-.36-.19-.177-.286-.435-.286-.77 0-.328.11-.588.34-.777.228-.19.445-.322.655-.396h1.65c1.274 0 2.394-.41 3.354-1.23.96-.817 1.437-1.82 1.437-3.003 0-.454-.082-.92-.245-1.395-.164-.474-.415-.907-.752-1.298v-.08h3.17V6.15h-4.697c-.42-.128-.83-.233-1.236-.315-.404-.082-.812-.123-1.222-.123-1.484 0-2.702.41-3.652 1.23-.95.818-1.428 1.864-1.428 3.14 0 .848.24 1.59.724 2.232.48.642 1.16 1.168 2.033 1.576v.205c-.692.29-1.208.64-1.55 1.045-.342.405-.514.85-.514 1.33 0 .385.072.705.22.964.145.26.336.485.572.678.21.163.46.308.752.43.29.122.572.226.846.308v.19c-1.128.047-2.058.337-2.785.873-.728.538-1.092 1.27-1.092 2.2 0 1.145.506 2.017 1.516 2.613 1.01.598 2.533.896 4.572.896 1.246 0 2.293-.12 3.14-.355.85-.237 1.576-.57 2.187-.996.57-.42 1-.91 1.283-1.48.28-.57.424-1.176.424-1.823 0-.646-.104-1.188-.314-1.625-.21-.436-.495-.827-.86-1.174-.347-.32-.73-.57-1.156-.752zm-3.168-4.84c-.424.632-1.025.947-1.81.947-.7 0-1.27-.315-1.714-.953-.44-.638-.662-1.46-.662-2.473 0-.445.04-.88.116-1.304.077-.425.207-.787.39-1.087.19-.328.44-.58.744-.758.306-.177.67-.268 1.1-.268.78 0 1.39.317 1.822.95.433.632.648 1.48.648 2.546.002.968-.21 1.767-.634 2.4zm2.104 11.237c-.77.52-1.822.773-3.16.773-.773 0-1.43-.074-1.968-.225-.537-.15-.965-.345-1.283-.58-.337-.246-.572-.516-.71-.807-.137-.29-.205-.596-.205-.914 0-.71.208-1.29.622-1.74.414-.45 1.113-.772 2.098-.964 1.046 0 1.967.024 2.757.07.793.045 1.316.086 1.572.122.48.117.84.34 1.078.67.236.328.354.745.354 1.256-.004 1.048-.388 1.83-1.157 2.343z"/><path fill="#fff" d="M20.158 18.083c-.423-.182-.843-.283-1.264-.3-.29-.01-.784-.037-1.48-.083-.697-.046-1.244-.073-1.646-.08-.373-.01-.734-.024-1.085-.043-.35-.018-.658-.062-.922-.136-.27-.06-.504-.184-.694-.36-.19-.178-.286-.435-.286-.77 0-.328.11-.59.34-.78.228-.19.445-.32.655-.395h1.65c1.274 0 2.394-.41 3.354-1.23.96-.818 1.437-1.82 1.437-3.003 0-.454-.082-.92-.245-1.394-.164-.474-.415-.906-.752-1.297V8.13h3.17v-1.31h-4.697c-.42-.128-.83-.233-1.236-.315-.404-.08-.812-.123-1.222-.123-1.484 0-2.702.41-3.652 1.228-.95.818-1.428 1.865-1.428 3.14 0 .848.24 1.592.724 2.232.48.643 1.16 1.168 2.033 1.577v.205c-.692.29-1.208.64-1.55 1.045s-.514.85-.514 1.33c0 .384.072.704.22.963.145.26.336.485.572.678.21.164.46.308.752.43.29.123.572.226.846.308v.19c-1.128.047-2.058.338-2.785.874-.728.537-1.092 1.27-1.092 2.2 0 1.145.506 2.017 1.516 2.612 1.01.6 2.533.896 4.572.896 1.246 0 2.293-.12 3.14-.355.85-.236 1.576-.57 2.187-.996.57-.42 1-.913 1.283-1.482.28-.568.424-1.175.424-1.823 0-.646-.104-1.187-.314-1.625-.21-.437-.495-.828-.86-1.175-.347-.316-.73-.566-1.156-.75zm-3.168-4.84c-.424.633-1.025.948-1.81.948-.7 0-1.27-.316-1.714-.953-.44-.64-.662-1.462-.662-2.474 0-.444.04-.88.116-1.304.077-.425.207-.786.39-1.087.19-.327.44-.58.744-.757.306-.178.67-.268 1.1-.268.78 0 1.39.316 1.822.95.433.63.648 1.48.648 2.545.002.97-.21 1.767-.634 2.4zm2.104 11.236c-.77.515-1.822.77-3.16.77-.773 0-1.43-.074-1.968-.226-.537-.15-.965-.345-1.283-.58-.337-.245-.572-.516-.71-.807-.137-.29-.205-.597-.205-.915 0-.71.208-1.29.622-1.74.414-.45 1.113-.772 2.098-.964 1.046 0 1.967.022 2.757.067.793.046 1.316.088 1.572.123.48.118.84.342 1.078.67.236.328.354.745.354 1.256-.004 1.05-.388 1.83-1.157 2.343z"/></g><g transform="translate(80 80)"><linearGradient id="a" gradientUnits="userSpaceOnUse" x1="-478.488" y1="-468.401" x2="-478.488" y2="-466.865" gradientTransform="matrix(20.833 0 0 20.833 9984.478 9758.351)"><stop offset="0" stop-color="#E16D35"/><stop offset="1" stop-color="#C93D1D"/></linearGradient><path fill="url(#a)" d="M32 28c0 2.21-1.79 4-4 4H4c-2.208 0-4-1.79-4-4V4c0-2.208 1.792-4 4-4h24c2.21 0 4 1.792 4 4v24z"/><path fill="#B7321C" d="M17.798 17.216c-.37-.16-.738-.247-1.104-.263-.256-.01-.688-.032-1.297-.072-.61-.037-1.09-.06-1.44-.07-.326-.007-.644-.02-.95-.034-.306-.017-.575-.057-.806-.12-.237-.057-.44-.16-.61-.317-.165-.155-.25-.38-.25-.676 0-.287.1-.514.3-.68.2-.168.39-.283.573-.35h1.446c1.113 0 2.092-.356 2.933-1.074.84-.718 1.26-1.594 1.26-2.63 0-.397-.07-.805-.214-1.22-.145-.413-.36-.79-.657-1.134v-.07h2.77v-1.15h-4.11c-.366-.11-.727-.202-1.082-.273-.353-.072-.71-.108-1.067-.108-1.298 0-2.365.36-3.197 1.076-.835.718-1.25 1.634-1.25 2.75 0 .74.21 1.394.632 1.954.422.562 1.016 1.022 1.78 1.38v.18c-.603.256-1.057.56-1.356.914-.298.353-.446.742-.446 1.164 0 .335.063.616.19.844.127.227.294.424.502.592.184.144.402.27.657.376.254.107.502.197.74.27v.166c-.987.04-1.8.295-2.437.766s-.956 1.11-.956 1.925c0 1.005.442 1.768 1.327 2.29.883.52 2.22.783 4.002.783 1.092 0 2.01-.104 2.75-.312.74-.206 1.377-.497 1.912-.872.502-.366.876-.798 1.124-1.296.246-.498.37-1.03.37-1.596 0-.567-.092-1.04-.273-1.423-.185-.382-.436-.726-.755-1.027-.303-.283-.64-.503-1.01-.662zm-2.773-4.237c-.37.553-.9.83-1.583.83-.613 0-1.113-.28-1.5-.838-.388-.557-.58-1.277-.58-2.163 0-.39.034-.77.102-1.143s.18-.687.34-.95c.168-.287.387-.508.652-.664.266-.155.587-.232.962-.232.686 0 1.217.277 1.595.83.378.556.568 1.298.568 2.23.003.845-.183 1.544-.554 2.098zm1.84 9.834c-.672.45-1.596.675-2.767.675-.677 0-1.25-.066-1.72-.197-.47-.13-.846-.3-1.124-.51-.295-.214-.502-.45-.622-.704s-.18-.52-.18-.8c0-.623.182-1.13.545-1.525.362-.395.974-.676 1.834-.843.918 0 1.724.02 2.416.06.693.04 1.15.076 1.375.107.423.103.738.3.946.585.207.287.31.652.31 1.1 0 .916-.336 1.6-1.01 2.05zm5.567-11.942v2.336h.912v-2.336h2.326v-.897h-2.326V7.633h-.912v2.342h-2.324v.897h2.324z"/><path fill="#fff" d="M17.798 18.133c-.37-.16-.738-.247-1.104-.264-.256-.01-.688-.034-1.297-.073-.61-.04-1.09-.062-1.44-.07-.326-.01-.644-.02-.95-.036-.306-.016-.575-.056-.806-.12-.237-.056-.44-.16-.61-.316-.165-.154-.25-.38-.25-.675 0-.288.1-.515.3-.68.2-.17.39-.285.573-.35h1.446c1.113 0 2.092-.358 2.933-1.075.84-.718 1.26-1.594 1.26-2.63 0-.396-.07-.804-.214-1.22-.145-.413-.36-.79-.657-1.134v-.07h2.77V8.274h-4.11c-.368-.11-.728-.203-1.083-.274-.355-.07-.712-.11-1.07-.11-1.297 0-2.364.36-3.196 1.077-.833.717-1.25 1.633-1.25 2.75 0 .74.21 1.393.634 1.953.422.563 1.016 1.023 1.78 1.382v.18c-.603.255-1.057.56-1.356.913-.3.355-.45.743-.45 1.165 0 .335.064.616.19.844s.295.425.503.592c.184.144.402.27.657.377.254.105.502.197.74.27v.166c-.987.04-1.8.293-2.437.764-.638.47-.956 1.11-.956 1.925 0 1.003.44 1.765 1.325 2.287.884.522 2.22.784 4.003.784 1.09 0 2.008-.103 2.748-.31.742-.21 1.378-.5 1.913-.874.502-.366.876-.8 1.124-1.297.246-.5.37-1.03.37-1.596 0-.566-.092-1.04-.273-1.423-.184-.382-.435-.725-.754-1.027-.302-.282-.638-.502-1.01-.66zm-2.773-4.237c-.37.554-.9.83-1.583.83-.613 0-1.113-.277-1.5-.836-.388-.558-.58-1.278-.58-2.164 0-.39.034-.77.102-1.14s.18-.69.34-.95c.168-.288.387-.51.652-.664.266-.154.587-.232.962-.232.686 0 1.217.276 1.595.83.378.555.568 1.298.568 2.23.003.843-.183 1.542-.554 2.096zm1.84 9.836c-.672.45-1.596.675-2.767.675-.677 0-1.25-.065-1.72-.196-.47-.13-.846-.3-1.124-.507-.295-.215-.502-.45-.622-.705s-.18-.52-.18-.8c0-.623.182-1.13.545-1.524.362-.395.974-.676 1.834-.844.918 0 1.724.02 2.416.06.693.04 1.15.076 1.375.107.423.103.738.298.946.586.207.287.31.652.31 1.1 0 .915-.336 1.6-1.01 2.05zm5.567-11.942v2.336h.912V11.79h2.326v-.897h-2.326V8.55h-.912v2.343h-2.324v.896h2.324z"/></g><g transform="translate(40 120)"><linearGradient id="a" gradientUnits="userSpaceOnUse" x1="-478.488" y1="-468.401" x2="-478.488" y2="-466.865" gradientTransform="matrix(20.833 0 0 20.833 9984.478 9758.351)"><stop offset="0" stop-color="#4BD0EF"/><stop offset="1" stop-color="#29AAE1"/></linearGradient><path fill="url(#a)" d="M32 28c0 2.21-1.79 4-4 4H4c-2.208 0-4-1.79-4-4V4c0-2.208 1.792-4 4-4h24c2.21 0 4 1.792 4 4v24z"/><path fill="#29AAE1" d="M26.82 8.942c-.746.332-1.55.556-2.393.655.86-.516 1.52-1.332 1.83-2.305-.803.477-1.693.824-2.645 1.01-.76-.81-1.842-1.313-3.04-1.313-2.3 0-4.164 1.86-4.164 4.163 0 .327.037.644.106.95-3.46-.175-6.53-1.833-8.583-4.353-.355.617-.56 1.333-.56 2.096 0 1.445.734 2.72 1.853 3.467-.683-.02-1.325-.21-1.887-.52v.052c0 2.02 1.437 3.7 3.34 4.083-.35.097-.716.146-1.097.146-.27 0-.53-.025-.785-.073.53 1.655 2.068 2.86 3.89 2.895-1.426 1.116-3.222 1.783-5.172 1.783-.336 0-.668-.02-.994-.06 1.843 1.182 4.03 1.872 6.384 1.872 7.66 0 11.85-6.348 11.85-11.85 0-.182-.004-.36-.013-.54.817-.59 1.524-1.323 2.08-2.158z"/><path fill="#fff" d="M26.82 9.826c-.746.33-1.55.555-2.393.656.86-.516 1.52-1.332 1.83-2.305-.803.478-1.693.824-2.645 1.01-.76-.81-1.842-1.313-3.04-1.313-2.3 0-4.164 1.864-4.164 4.165 0 .324.037.642.106.947-3.46-.174-6.53-1.832-8.583-4.352-.356.615-.56 1.33-.56 2.095 0 1.445.733 2.72 1.852 3.467-.682-.02-1.324-.21-1.886-.52v.053c0 2.018 1.437 3.7 3.34 4.083-.35.097-.716.146-1.097.146-.27 0-.53-.027-.785-.075.53 1.654 2.068 2.857 3.89 2.893-1.426 1.116-3.222 1.78-5.172 1.78-.335 0-.667-.02-.993-.058 1.844 1.182 4.032 1.872 6.385 1.872 7.66 0 11.85-6.347 11.85-11.85 0-.182-.004-.36-.013-.54.816-.59 1.523-1.323 2.08-2.158z"/></g><g transform="translate(0 160)"><linearGradient id="a" gradientUnits="userSpaceOnUse" x1="-461.129" y1="286.599" x2="-461.129" y2="286.478" gradientTransform="matrix(265.625 0 0 -265.625 122503.438 76127.813)"><stop offset="0" stop-color="#F93C2D"/><stop offset="1" stop-color="#D32D20"/></linearGradient><path fill="url(#a)" d="M32 27.982c0 2.205-1.79 3.993-4 3.993H4c-2.21 0-4-1.788-4-3.993V4.018C0 1.814 1.79.025 4 .025h24c2.21 0 4 1.79 4 3.993v23.964z"/><path fill="#fff" d="M16.454 24.158s3.45 0 6.76-.168c3.31-.168 3.913-1.082 4.23-3.914.418-3.75-.042-8.735-.042-8.735s-.042-3.056-3.52-3.18c-3.477-.127-7.424-.17-7.424-.17h-.72s-3.947.043-7.424.17c-3.478.125-3.52 3.182-3.52 3.182s-.46 4.985-.042 8.736c.317 2.832.922 3.748 4.23 3.914 3.31.168 6.76.168 6.76.168h.712z"/><path fill="#DA281E" d="M13.72 12.766V19.3l6.198-3.225z"/><path fill="#C9221B" d="M13.72 12.766l5.433 3.706.765-.397z"/></g></svg>